<svg xmlns="http://www.w3.org/2000/svg" width="24" height="24" viewBox="0 0 24 24" fill="none" aria-hidden="true">
  <circle cx="12" cy="12" r="10.5" stroke="#fe5502" stroke-width="1.5"/>
  <path fill="#fe5502" d="M9.85 10.05c0-1.2.95-2.08 2.15-2.08 1.22 0 2.15.88 2.15 2 0 .85-.45 1.45-1.2 2.03-.68.53-1 .95-1.05 1.68h-1.4c0-1.05.43-1.55 1.15-2.08.48-.37.85-.73.85-1.28 0-.57-.43-.98-1-.98-.62 0-1 .4-1.02 1.05l.02.66H9.85zM11.43 17.05c-.65 0-1.1-.45-1.1-1.1s.45-1.12 1.12-1.12c.68 0 1.13.46 1.13 1.12 0 .65-.46 1.1-1.15 1.1z"/>
</svg>
